<svg fill="none" xmlns="http://www.w3.org/2000/svg" viewBox="0 0 20 18" style="margin-top:5px"><path fill-rule="evenodd" clip-rule="evenodd" d="M10 1C7.791 1 6 2.791 6 5s1.791 4 4 4 4-1.791 4-4-1.791-4-4-4Zm9.938 4.347C18.923 8.087 14.836 10 10 10S1.077 8.087.0619982 5.347c-.083-.224-.083-.47 0-.694C1.077 1.913 5.164 0 10 0s8.923 1.913 9.938 4.653c.083.224.083.47 0 .694Z" fill="#37454D"/><path fill-rule="evenodd" clip-rule="evenodd" d="M10 7c-1.103 0-2-.897-2-2s.897-2 2-2 2 .897 2 2-.897 2-2 2Z" fill="#37454D"/></svg>
