<svg fill="none" xmlns="http://www.w3.org/2000/svg" viewBox="0 0 20 18"><path fill-rule="evenodd" clip-rule="evenodd" d="M8.43988 5.31976h.01c.47-.21 1-.32 1.55-.32 2.21002 0 4.00002 1.79 4.00002 4 0 .55-.11 1.08004-.32 1.55004v.01l2.31 2.31c1.97-.81 3.4-2.05 3.95-3.52004.08-.23.08-.47 0-.7-1.02-2.74-5.1-4.65-9.94002-4.65-.92 0-1.82.07-2.67.21l1.11 1.11ZM.0600443 9.34988C1.08004 12.0899 5.16004 13.9999 10 13.9999c.92 0 1.82-.07 2.67-.21l-1.11-1.11c-.48.21-1.01.32-1.56.32-2.20996 0-3.99996-1.79-3.99996-4.00002 0-.55.11-1.08.32-1.56l-2.31-2.31c-1.97.81-3.399996 2.05-3.9499957 3.52-.0799999.23-.0799999.47 0 .7Z" fill="#37454D"/><path fill-rule="evenodd" clip-rule="evenodd" d="m9.87012 10.9901-1.86-1.85997c.06.99997.86 1.79997 1.86 1.85997Zm2.12008-2.12009c-.06-1-.86-1.8-1.86-1.86l1.86 1.86ZM17.6499 17.35c.09.1.22.15.35.15.13 0 .26-.05.35-.15.2-.2.2-.51 0-.7L2.34988.65c-.09-.1-.22-.15-.35-.15-.13 0-.26.05-.35.15-.2.19-.2.5 0 .7l16.00002 16Z" fill="#37454D"/></svg>